<?xml version="1.0" encoding="UTF-8" standalone="no"?>
<svg
   width="1466"
   height="306"
   viewBox="108 305 1466 306"
   role="img"
   aria-label="GestãoNF"
   version="1.1"
   id="svg14"
   xmlns="http://www.w3.org/2000/svg"
   xmlns:svg="http://www.w3.org/2000/svg">
  <defs
     id="defs18" />
  <g
     transform="matrix(0.345,0,0,0.345,118,315)"
     id="g4">
    <path
       d="m 904,447 h -6 l -1,1 -14,2 -5,2 h -4 l -1,1 h -3 l -1,1 h -3 l -1,1 h -3 l -1,1 -15,3 -11,4 h -3 l -13,5 h -3 l -3,2 h -3 l -1,1 -5,1 -3,2 -8,2 -8,4 -8,2 -10,5 -10,3 -5,3 -7,2 -9,5 h -2 l -7,4 h -2 l -15,8 h -2 l -2,2 h -2 l -20,10 -2,2 -11,5 -2,2 -13,6 -7,5 -7,3 -2,2 -3,1 -2,2 -5,2 -5,4 -13,7 -3,3 -5,2 -15,10 -3,3 -3,1 -12,9 -6,3 -24,18 -7,4 -16,12 -4,4 -13,9 -5,5 -4,2 -14,12 -9,6 -6,6 -11,8 -6,6 h -1 l -19,17 h -1 l -12,11 h -1 l -32,29 -7,5 -10,10 h -1 l -54,50 h -1 l -17,17 h -1 v 2 h 454 l 1,-1 h 5 l 1,-1 h 3 l 1,-1 h 3 l 1,-1 8,-2 12,-6 9,-6 8,-8 h 1 l 86,-86 10,-14 4,-8 v -2 l 3,-5 v -2 l 2,-4 v -3 l 1,-1 v -3 l 1,-1 v -6 l 1,-1 z m -610,28 v 11 l 1,1 1,7 3,6 3,4 8,7 6,3 6,1 1,1 h 258 l 21,-14 3,-1 2,-2 3,-1 5,-4 3,-1 2,-2 5,-2 4,-3 v -14 l -1,-1 -1,-5 -4,-7 -5,-5 -7,-5 -8,-3 h -4 l -1,-1 H 325 l -1,1 -7,1 -8,4 -10,11 -3,6 -1,6 z m 0,-148 2,14 4,8 10,10 6,3 6,1 1,1 h 307 l 12,-5 8,-7 6,-10 1,-6 1,-1 v -11 l -1,-1 v -4 l -4,-9 -3,-4 -9,-8 -4,-2 h -2 l -4,-2 h -4 l -1,-1 H 326 l -1,1 h -4 l -6,3 h -2 l -6,4 -4,4 -7,12 v 2 l -1,1 v 6 z M 884,27 879,22 h -1 l -5,-5 -7,-5 -20,-9 h -3 l -5,-2 h -5 L 832,0 H 311 l -1,1 h -4 l -1,1 -7,1 -3,2 -5,1 -8,4 -16,12 -246,245 -8,12 -7,14 v 2 l -2,4 -1,8 -1,1 v 5 l -1,1 v 445 l 1,1 v 5 l 1,1 v 3 l 1,1 2,8 4,7 v 2 l 8,12 13,13 7,5 16,8 10,2 1,1 h 5 l 1,1 H 197 V 239 l 1,-1 1,-8 4,-10 6,-9 8,-9 10,-7 8,-4 h 2 l 4,-2 h 3 l 1,-1 h 5 l 1,-1 h 450 l 1,1 h 5 l 1,1 7,1 15,8 12,11 2,4 3,3 5,10 2,10 1,1 v 8 l 1,1 v 26 l -1,1 v 2 l 1,1 v 25 l -1,1 v 2 l 1,1 v 117 h 2 l 12,-6 h 2 l 3,-2 h 2 l 3,-2 7,-2 5,-3 10,-3 8,-4 17,-5 3,-2 h 3 l 13,-5 h 3 l 4,-2 h 3 l 4,-2 h 3 l 1,-1 h 3 l 1,-1 h 3 l 5,-2 h 4 l 1,-1 h 3 l 5,-2 h 5 l 1,-1 9,-1 V 173 l 1,-1 v -5 l -1,-1 V 72 l -1,-1 -1,-10 -1,-1 -2,-8 -3,-5 v -2 z"
       fill="#176b87"
       fill-rule="evenodd"
       id="path2" />
  </g>
  <g
     transform="matrix(0.96,0,0,1,450,0)"
     id="g8">
    <g
       aria-label="Gestão"
       id="text6"
       style="font-weight:700;font-size:250px;font-family:'Nimbus Sans', Arial, Helvetica, sans-serif;letter-spacing:-6;fill:#ffffff">
      <path
         d="m 177.75,464 h -73 v 31.25 h 41.5 c -1,10.25 -3.5,16.5 -9,23 -9,11 -23,17.5 -37.25,17.5 -30.5,0 -52,-26.5 -52,-64 0,-39.25 19,-63 51,-63 13,0 24,3.75 32.25,11 5.25,4.5 8,8.75 11.25,18.25 h 35.25 c -4.5,-37.75 -35,-61.25 -79,-61.25 -52.5,0 -88.25,38.75 -88.25,95.5 0,55.25 36,95.5 85.25,95.5 24.5,0 41,-8.75 55,-29.25 l 4.5,24 h 22.5 z"
         id="path20" />
      <path
         d="m 321.49982,505.5 c 0.25,-3 0.25,-4.25 0.25,-6 0,-13.5 -2,-26 -5.25,-35.5 -9,-24.5 -30.75,-39.25 -58,-39.25 -38.75,0 -62.5,28 -62.5,73.25 0,43.25 23.5,69.75 61.75,69.75 30.25,0 54.75,-17 62.5,-43.75 h -34.5 c -4.25,10.75 -14,17 -26.75,17 -10,0 -18,-4.25 -23,-11.75 -3.25,-5 -4.5,-11 -5,-23.75 z m -90,-23.25 c 2.25,-20.75 11,-30.75 26.5,-30.75 16,0 25.5,10.75 27.25,30.75 z"
         id="path22" />
      <path
         d="m 450.74969,470.5 c -0.5,-28.5 -22.5,-45.75 -58.75,-45.75 -34.25,0 -55.5,17.25 -55.5,45 0,9 2.75,16.75 7.5,22 4.75,4.75 9,7 22,11.25 l 41.75,13 c 8.75,2.75 11.75,5.5 11.75,11 0,8.25 -9.75,13.25 -26,13.25 -9.25,0 -16.25,-1.5 -20.75,-4.75 -3.75,-2.75 -5.25,-5.5 -6.75,-12.75 h -34.25 c 1,29.75 22.75,45 63.75,45 18.75,0 33,-4 43,-12 10,-8 16,-20.5 16,-33.75 0,-17.5 -8.75,-28.75 -26.5,-34 l -44.25,-12.75 c -9.75,-3 -12.25,-5 -12.25,-10.5 0,-7.5 8,-12.5 20.25,-12.5 16.75,0 25,6 25.25,18.25 z"
         id="path24" />
      <path
         d="m 532.49976,429.75 h -19.5 V 393.5 h -35 v 36.25 h -17.25 V 453 h 17.25 v 83 c 0,21.25 11.25,31.75 34.25,31.75 8,0 13.75,-0.75 20.25,-2.75 v -24.5 c -3.5,0.5 -5.25,0.75 -8,0.75 -9.25,0 -11.5,-2.75 -11.5,-14.75 V 453 h 19.5 z"
         id="path26" />
      <path
         d="m 665.49982,557.75 c -6,-5.75 -8,-9.75 -8,-16.5 v -75 c 0,-27.5 -18.75,-41.5 -55.25,-41.5 -36.5,0 -55.5,15.5 -57.75,46.75 h 33.75 c 1.75,-14 7.5,-18.5 24.75,-18.5 13.5,0 20.25,4.5 20.25,13.5 0,4.5 -2.25,8.25 -6,10.5 -4.75,2.5 -4.75,2.5 -22,5.25 l -14,2.5 c -26.75,4.5 -39.75,18.25 -39.75,42.5 0,24.25 16.25,40.5 41,40.5 15,0 28.5,-6.25 41,-19.25 0,7 0.75,9.5 4,13.5 h 38 z m -42.25,-50 c 0,20.25 -10,31.75 -27.75,31.75 -11.75,0 -19,-6.25 -19,-16.25 0,-10.5 5.5,-15.5 20,-18.5 l 12,-2.25 c 9.25,-1.75 10.75,-2.25 14.75,-4.25 z m 8,-133 c -1,8 -4,12 -9.25,12 -1.75,0 -6.75,-0.75 -8.25,-1.5 l -18,-6.25 c -9,-3.25 -9.25,-3.25 -13.75,-3.25 -14,0 -22.75,11.5 -23.75,31 h 15.75 c 1.25,-8 4,-11.25 10,-11.25 2.25,0 4.75,0.5 7.5,1.5 l 18,6.5 c 5,2 9.75,3 13.5,3 14.75,0 22.75,-10.5 23.75,-31.75 z"
         id="path28" />
      <path
         d="m 742.74976,424.75 c -41.25,0 -66.5,27.25 -66.5,71.5 0,44.5 25.25,71.5 66.75,71.5 41.25,0 66.75,-27 66.75,-70.5 0,-45.75 -24.75,-72.5 -67,-72.5 z m 0.25,28.25 c 19.25,0 31.75,17.25 31.75,43.75 0,25.25 -13,42.75 -31.75,42.75 -19,0 -31.75,-17.25 -31.75,-43.25 0,-26 12.75,-43.25 31.75,-43.25 z"
         id="path30" />
    </g>
  </g>
  <g
     transform="matrix(1.04,0,0,1,1230,0)"
     id="g12">
    <g
       aria-label="NF"
       id="text10"
       style="font-weight:700;font-size:250px;font-family:'Nimbus Sans', Arial, Helvetica, sans-serif;letter-spacing:-6;fill:#176b87">
      <path
         d="m 127.75,562 h 37.5 V 379.75 h -37.5 v 124 L 55.5,379.75 H 17 V 562 H 54.5 V 436 Z"
         id="path33" />
      <path
         d="m 230.50003,483.5 h 79.75 v -31.25 h -79.75 V 411 h 90.5 v -31.25 h -128 V 562 h 37.5 z"
         id="path35" />
    </g>
  </g>
</svg>
